<?xml version="1.0" encoding="utf-8"?>
<!-- Generator: Adobe Illustrator 26.2.1, SVG Export Plug-In . SVG Version: 6.00 Build 0)  -->
<svg version="1.1" id="Capa_1" xmlns="http://www.w3.org/2000/svg" xmlns:xlink="http://www.w3.org/1999/xlink" x="0px" y="0px"
	 viewBox="0 0 212 57" style="enable-background:new 0 0 212 57;" xml:space="preserve">
<style type="text/css">
	.st0{fill:#242D58;}
	.st1{fill:#DD1F23;}
	.st2{fill:#2CA6DD;}
	.st3{fill:#6F3A8A;}
	.st4{fill:#E77A2E;}
	.st5{fill:#66AB2F;}
	.st6{fill:#F0BA00;}
	.st7{fill:#F9BD15;}
	.st8{fill:#E5232A;}
</style>
<g>
	<g>
		<g>
			<path class="st0" d="M29.3,16.6c0,0-0.1,0-0.1,0c-0.5-0.1-0.9-0.4-1.1-0.9l-2.9-8.9C25,6.1,25.3,5.4,26,5.1
				c0.7-0.2,1.4,0.2,1.6,0.8l2,6.1l3.2-5.6C33.2,5.9,34,5.6,34.6,6c0.6,0.4,0.8,1.2,0.5,1.8l-4.6,8.2C30.2,16.4,29.8,16.6,29.3,16.6
				"/>
			<path class="st1" d="M19.6,18.6c-0.2,0-0.5-0.1-0.7-0.2l-7.6-4.9c-0.6-0.4-0.7-1.2-0.4-1.7c0.4-0.6,1.2-0.7,1.7-0.4l5.2,3.4
				l-1-6.1c-0.1-0.7,0.4-1.3,1-1.4c0.7-0.1,1.3,0.4,1.4,1l1.5,8.9c0.1,0.5-0.1,1-0.6,1.3C20.1,18.5,19.8,18.6,19.6,18.6"/>
			<path class="st2" d="M4.9,26.1c-0.6,0-1.2-0.5-1.2-1.1c0-0.7,0.5-1.2,1.1-1.2l5.8-0.3l-4.1-4.1c-0.5-0.5-0.5-1.2,0-1.7
				c0.5-0.5,1.2-0.5,1.7,0l6,6c0.3,0.3,0.4,0.8,0.3,1.3c-0.2,0.4-0.6,0.7-1.1,0.8L4.9,26.1C4.9,26.1,4.9,26.1,4.9,26.1"/>
			<path class="st3" d="M7.2,41.7c-0.3,0-0.6-0.1-0.9-0.4c-0.5-0.5-0.4-1.3,0.1-1.7l4.4-4.1l-6-0.5c-0.7-0.1-1.2-0.6-1.1-1.3
				c0.1-0.7,0.6-1.2,1.3-1.1l8.8,0.7c0.5,0,0.9,0.4,1.1,0.8c0.2,0.5,0,1-0.3,1.3l-6.4,6C7.8,41.6,7.5,41.7,7.2,41.7"/>
			<path class="st4" d="M16.7,51.3c-0.1,0-0.2,0-0.3,0c-0.6-0.1-0.9-0.7-0.8-1.3l1.3-5.2l-4.7,2.5c-0.5,0.3-1.2,0.1-1.5-0.4
				c-0.3-0.5-0.1-1.2,0.4-1.5l6.9-3.7c0.4-0.2,0.8-0.2,1.2,0.1c0.3,0.3,0.5,0.7,0.4,1.1l-1.9,7.6C17.7,50.9,17.2,51.3,16.7,51.3"/>
			<path class="st5" d="M23.9,53.2c-0.1,0-0.2,0-0.3-0.1C23.1,53,22.9,52.4,23,52l2.4-6.2c0.1-0.3,0.5-0.6,0.8-0.6
				c0.4,0,0.7,0.2,0.9,0.5l3,6c0.2,0.5,0,1-0.4,1.2c-0.5,0.2-1,0-1.2-0.4l-2-4.1l-1.7,4.3C24.6,53,24.3,53.2,23.9,53.2"/>
			<path class="st6" d="M38,21.9c-0.4,0-0.8-0.2-1-0.4c-0.4-0.4-0.5-1-0.3-1.5l3.9-9.5c0.3-0.7,1.1-1.1,1.9-0.8
				c0.7,0.3,1.1,1.1,0.8,1.9L40.6,18l6.6-2.4c0.7-0.3,1.6,0.1,1.8,0.9c0.3,0.7-0.1,1.6-0.9,1.8l-9.7,3.5
				C38.3,21.8,38.2,21.9,38,21.9"/>
		</g>
		<g>
			<g>
				<path class="st0" d="M33.1,38.4L32.9,37c-0.3,0.4-0.8,0.8-1.4,1.2c-0.7,0.3-1.5,0.5-2.5,0.5c-1,0-1.9-0.2-2.7-0.5
					c-0.9-0.3-1.6-0.8-2.2-1.5c-0.6-0.6-1.1-1.4-1.5-2.3c-0.4-0.9-0.6-1.9-0.6-3c0-1.1,0.2-2.1,0.6-3c0.4-0.9,0.9-1.7,1.6-2.3
					c0.7-0.6,1.4-1.1,2.3-1.5c0.9-0.3,1.8-0.5,2.8-0.5c1,0,1.9,0.1,2.6,0.4c0.7,0.3,1.4,0.6,1.9,1c0.5,0.4,0.9,0.9,1.2,1.4
					c0.3,0.5,0.5,1,0.7,1.5l-3,1c-0.1-0.2-0.2-0.5-0.3-0.7c-0.2-0.3-0.4-0.5-0.6-0.8c-0.3-0.3-0.6-0.5-1-0.6
					c-0.4-0.2-0.9-0.3-1.5-0.3c-0.5,0-0.9,0.1-1.4,0.2c-0.5,0.2-0.9,0.4-1.3,0.8c-0.4,0.4-0.7,0.8-1,1.4c-0.2,0.5-0.4,1.2-0.4,2
					c0,0.7,0.1,1.4,0.3,1.9c0.2,0.5,0.5,1,0.9,1.4c0.4,0.4,0.8,0.6,1.3,0.8c0.5,0.2,1,0.3,1.6,0.3c0.6,0,1.1-0.1,1.5-0.2
					c0.4-0.2,0.8-0.4,1-0.6c0.3-0.2,0.5-0.5,0.6-0.7c0.2-0.3,0.2-0.5,0.3-0.7h-4.2V31h7.1v7.4H33.1z"/>
				<path class="st0" d="M42.2,28.4c0.7,0,1.4,0.1,2,0.4c0.6,0.3,1.2,0.6,1.6,1.1c0.5,0.5,0.8,1,1.1,1.6c0.3,0.6,0.4,1.3,0.4,2.1
					c0,0.8-0.1,1.5-0.4,2.1c-0.3,0.6-0.6,1.2-1.1,1.6c-0.5,0.5-1,0.8-1.6,1.1c-0.6,0.3-1.3,0.4-2,0.4c-0.7,0-1.4-0.1-2-0.4
					c-0.6-0.3-1.2-0.6-1.6-1.1c-0.5-0.5-0.8-1-1.1-1.6C37.1,35,37,34.3,37,33.5c0-0.8,0.1-1.5,0.4-2.1c0.3-0.6,0.6-1.2,1.1-1.6
					c0.5-0.5,1-0.8,1.6-1.1C40.8,28.5,41.4,28.4,42.2,28.4z M42.2,35.9c0.3,0,0.6,0,0.8-0.1c0.3-0.1,0.5-0.2,0.7-0.5
					c0.2-0.2,0.4-0.5,0.5-0.8c0.1-0.3,0.2-0.7,0.2-1.1c0-0.4-0.1-0.8-0.2-1.1c-0.1-0.3-0.3-0.6-0.5-0.8c-0.2-0.2-0.4-0.3-0.7-0.4
					c-0.3-0.1-0.5-0.1-0.8-0.1c-0.3,0-0.5,0-0.8,0.1c-0.3,0.1-0.5,0.2-0.7,0.4c-0.2,0.2-0.4,0.4-0.5,0.8C40,32.8,40,33.1,40,33.5
					c0,0.4,0.1,0.8,0.2,1.1c0.1,0.3,0.3,0.6,0.5,0.8c0.2,0.2,0.4,0.4,0.7,0.5S41.9,35.9,42.2,35.9z"/>
				<path class="st0" d="M49,38.4V24.2h2.9v5.4c0.2-0.3,0.6-0.6,1.1-0.8c0.5-0.2,1.1-0.4,1.8-0.4c0.7,0,1.3,0.1,1.9,0.4
					c0.6,0.3,1,0.6,1.4,1.1c0.4,0.5,0.7,1,0.9,1.6c0.2,0.6,0.3,1.3,0.3,2c0,0.7-0.1,1.4-0.3,2.1c-0.2,0.6-0.5,1.2-1,1.6
					c-0.4,0.5-0.9,0.8-1.5,1.1c-0.6,0.3-1.2,0.4-1.9,0.4c-0.7,0-1.2-0.1-1.7-0.4c-0.5-0.2-0.8-0.6-1-0.9v1.1H49z M56.3,33.5
					c0-0.4-0.1-0.8-0.2-1.1c-0.1-0.3-0.3-0.6-0.5-0.8c-0.2-0.2-0.4-0.3-0.7-0.4c-0.3-0.1-0.5-0.1-0.8-0.1c-0.3,0-0.6,0-0.8,0.1
					c-0.3,0.1-0.5,0.2-0.7,0.4c-0.2,0.2-0.4,0.4-0.5,0.8c-0.1,0.3-0.2,0.7-0.2,1.1c0,0.4,0.1,0.8,0.2,1.1c0.1,0.3,0.3,0.6,0.5,0.8
					c0.2,0.2,0.4,0.4,0.7,0.5c0.3,0.1,0.5,0.2,0.8,0.2c0.3,0,0.6,0,0.8-0.1c0.3-0.1,0.5-0.2,0.7-0.5c0.2-0.2,0.4-0.5,0.5-0.8
					C56.2,34.3,56.3,33.9,56.3,33.5z"/>
			</g>
		</g>
		<g>
			<g>
				<path class="st0" d="M60.5,25.7c0-0.2,0-0.5,0.1-0.7c0.1-0.2,0.2-0.4,0.4-0.6c0.2-0.2,0.3-0.3,0.5-0.4c0.2-0.1,0.4-0.1,0.7-0.1
					c0.5,0,0.9,0.2,1.3,0.5c0.3,0.3,0.5,0.8,0.5,1.2c0,0.5-0.2,0.9-0.5,1.2c-0.3,0.3-0.8,0.5-1.3,0.5c-0.2,0-0.5,0-0.7-0.1
					c-0.2-0.1-0.4-0.2-0.5-0.4c-0.2-0.2-0.3-0.3-0.4-0.6C60.6,26.1,60.5,25.9,60.5,25.7z M60.8,38.4v-9.7h3v9.7H60.8z"/>
			</g>
		</g>
		<g>
			<g>
				<path class="st0" d="M74.9,35.6c-0.1,0.4-0.3,0.8-0.5,1.2c-0.2,0.4-0.6,0.7-0.9,1c-0.4,0.3-0.8,0.5-1.3,0.7
					c-0.5,0.2-1.1,0.2-1.7,0.2c-0.7,0-1.3-0.1-1.9-0.4c-0.6-0.2-1.2-0.6-1.6-1c-0.5-0.4-0.8-1-1.1-1.6c-0.3-0.6-0.4-1.4-0.4-2.2
					c0-0.8,0.1-1.5,0.4-2.1c0.3-0.6,0.6-1.2,1.1-1.6c0.5-0.4,1-0.8,1.6-1c0.6-0.2,1.2-0.4,1.8-0.4c1.5,0,2.7,0.4,3.6,1.3
					c0.9,0.9,1.3,2.1,1.3,3.7c0,0.2,0,0.4,0,0.6c0,0.2,0,0.3,0,0.3h-6.8c0,0.3,0.1,0.5,0.2,0.8c0.1,0.2,0.3,0.4,0.5,0.6
					c0.2,0.2,0.4,0.3,0.7,0.4c0.3,0.1,0.5,0.1,0.8,0.1c0.5,0,1-0.1,1.3-0.4c0.3-0.2,0.5-0.5,0.7-0.9L74.9,35.6z M72.2,32.4
					c0-0.2-0.1-0.4-0.1-0.6c-0.1-0.2-0.2-0.4-0.3-0.5c-0.2-0.2-0.4-0.3-0.6-0.4c-0.2-0.1-0.5-0.2-0.9-0.2c-0.3,0-0.6,0.1-0.8,0.2
					c-0.2,0.1-0.4,0.2-0.6,0.4c-0.2,0.2-0.3,0.3-0.4,0.5c-0.1,0.2-0.1,0.4-0.1,0.6H72.2z"/>
				<path class="st0" d="M82.9,31.6c-0.2,0-0.3-0.1-0.5-0.1c-0.2,0-0.3,0-0.5,0c-0.3,0-0.6,0-0.9,0.1c-0.3,0.1-0.5,0.2-0.7,0.5
					c-0.2,0.2-0.4,0.5-0.5,0.8c-0.1,0.3-0.2,0.8-0.2,1.2v4.3h-3v-9.7h2.9V30c0.1-0.3,0.3-0.5,0.5-0.7c0.2-0.2,0.4-0.3,0.7-0.4
					c0.2-0.1,0.5-0.2,0.7-0.2c0.2,0,0.5-0.1,0.7-0.1c0.3,0,0.6,0,0.8,0.1V31.6z"/>
				<path class="st0" d="M87.2,38.4h-3v-9.7h2.9v1.1c0.1-0.2,0.3-0.4,0.5-0.6c0.2-0.2,0.4-0.3,0.7-0.4c0.2-0.1,0.5-0.2,0.8-0.3
					c0.3-0.1,0.5-0.1,0.8-0.1c0.6,0,1.1,0.1,1.6,0.3c0.4,0.2,0.8,0.5,1.1,0.8c0.3,0.4,0.5,0.8,0.6,1.2c0.1,0.5,0.2,1,0.2,1.5v6.1h-3
					v-5.6c0-0.5-0.1-0.9-0.4-1.2c-0.3-0.3-0.7-0.5-1.2-0.5c-0.5,0-0.9,0.2-1.2,0.5c-0.3,0.3-0.4,0.7-0.4,1.2V38.4z"/>
			</g>
		</g>
		<g>
			<g>
				<path class="st0" d="M100,28.4c0.7,0,1.4,0.1,2,0.4c0.6,0.3,1.2,0.6,1.6,1.1c0.5,0.5,0.8,1,1.1,1.6c0.3,0.6,0.4,1.3,0.4,2.1
					c0,0.8-0.1,1.5-0.4,2.1c-0.3,0.6-0.6,1.2-1.1,1.6c-0.5,0.5-1,0.8-1.6,1.1c-0.6,0.3-1.3,0.4-2,0.4c-0.7,0-1.4-0.1-2-0.4
					c-0.6-0.3-1.2-0.6-1.6-1.1c-0.5-0.5-0.8-1-1.1-1.6c-0.3-0.6-0.4-1.3-0.4-2.1c0-0.8,0.1-1.5,0.4-2.1c0.3-0.6,0.6-1.2,1.1-1.6
					c0.5-0.5,1-0.8,1.6-1.1C98.6,28.5,99.3,28.4,100,28.4z M100,35.9c0.3,0,0.6,0,0.8-0.1c0.3-0.1,0.5-0.2,0.7-0.5
					c0.2-0.2,0.4-0.5,0.5-0.8c0.1-0.3,0.2-0.7,0.2-1.1c0-0.4-0.1-0.8-0.2-1.1c-0.1-0.3-0.3-0.6-0.5-0.8c-0.2-0.2-0.4-0.3-0.7-0.4
					c-0.3-0.1-0.5-0.1-0.8-0.1c-0.3,0-0.5,0-0.8,0.1c-0.3,0.1-0.5,0.2-0.7,0.4c-0.2,0.2-0.4,0.4-0.5,0.8c-0.1,0.3-0.2,0.7-0.2,1.1
					c0,0.4,0.1,0.8,0.2,1.1c0.1,0.3,0.3,0.6,0.5,0.8c0.2,0.2,0.4,0.4,0.7,0.5S99.8,35.9,100,35.9z"/>
			</g>
		</g>
		<g>
			<g>
				<path class="st0" d="M39.5,49c0,0.2,0,0.4,0,0.5c0,0.1,0,0.2,0,0.3h-1.3c0,0,0-0.1,0-0.2c0-0.1,0-0.2,0-0.3
					c-0.1,0.2-0.3,0.3-0.5,0.4c-0.2,0.1-0.5,0.1-0.7,0.1c-0.3,0-0.6-0.1-0.9-0.2c-0.3-0.1-0.5-0.3-0.7-0.5c-0.2-0.2-0.4-0.5-0.5-0.7
					c-0.1-0.3-0.2-0.6-0.2-0.9c0-0.3,0.1-0.6,0.2-0.9c0.1-0.3,0.3-0.5,0.5-0.7c0.2-0.2,0.4-0.4,0.7-0.5c0.3-0.1,0.6-0.2,0.9-0.2
					c0.2,0,0.4,0,0.5,0c0.1,0,0.3,0.1,0.4,0.1c0.1,0,0.2,0.1,0.2,0.1c0.1,0.1,0.1,0.1,0.1,0.1v-2.4h1.4V49z M36.1,47.6
					c0,0.2,0,0.3,0.1,0.5c0.1,0.1,0.1,0.3,0.2,0.3c0.1,0.1,0.2,0.2,0.3,0.2c0.1,0,0.3,0.1,0.4,0.1c0.1,0,0.3,0,0.4-0.1
					c0.1,0,0.2-0.1,0.3-0.2c0.1-0.1,0.2-0.2,0.2-0.3c0.1-0.1,0.1-0.3,0.1-0.5c0-0.2,0-0.3-0.1-0.5C38,47,38,46.8,37.9,46.7
					c-0.1-0.1-0.2-0.2-0.3-0.2c-0.1,0-0.3-0.1-0.4-0.1c-0.1,0-0.3,0-0.4,0.1c-0.1,0-0.2,0.1-0.3,0.2c-0.1,0.1-0.2,0.2-0.2,0.3
					C36.2,47.2,36.1,47.4,36.1,47.6z"/>
				<path class="st0" d="M44.6,48.5c-0.1,0.2-0.1,0.4-0.3,0.5c-0.1,0.2-0.3,0.3-0.4,0.5c-0.2,0.1-0.4,0.2-0.6,0.3
					c-0.2,0.1-0.5,0.1-0.8,0.1c-0.3,0-0.6-0.1-0.9-0.2c-0.3-0.1-0.5-0.3-0.7-0.5c-0.2-0.2-0.4-0.5-0.5-0.7c-0.1-0.3-0.2-0.6-0.2-1
					c0-0.4,0.1-0.7,0.2-1c0.1-0.3,0.3-0.5,0.5-0.7c0.2-0.2,0.4-0.4,0.7-0.5c0.3-0.1,0.5-0.2,0.8-0.2c0.7,0,1.2,0.2,1.6,0.6
					c0.4,0.4,0.6,1,0.6,1.7c0,0.1,0,0.2,0,0.3c0,0.1,0,0.1,0,0.1h-3.1c0,0.1,0,0.2,0.1,0.3c0.1,0.1,0.1,0.2,0.2,0.3
					c0.1,0.1,0.2,0.1,0.3,0.2c0.1,0,0.2,0.1,0.4,0.1c0.3,0,0.4-0.1,0.6-0.2c0.1-0.1,0.2-0.2,0.3-0.4L44.6,48.5z M43.4,47
					c0-0.1,0-0.2-0.1-0.3c0-0.1-0.1-0.2-0.2-0.2c-0.1-0.1-0.2-0.1-0.3-0.2c-0.1,0-0.2-0.1-0.4-0.1c-0.1,0-0.3,0-0.4,0.1
					c-0.1,0-0.2,0.1-0.3,0.2c-0.1,0.1-0.1,0.2-0.2,0.2c0,0.1-0.1,0.2-0.1,0.3H43.4z"/>
			</g>
		</g>
		<g>
			<g>
				<path class="st0" d="M45.5,49.8v-6.5h1.4v6.5H45.5z"/>
			</g>
		</g>
		<g>
			<g>
				<path class="st0" d="M50.5,49.8v-8.4h5.3v1.8h-3.5v1.6h3.1v1.7h-3.1V48h3.5v1.8H50.5z"/>
			</g>
		</g>
		<g>
			<g>
				<path class="st0" d="M58.8,49.8H57v-5.9h1.7v0.7c0.1-0.1,0.2-0.3,0.3-0.4c0.1-0.1,0.3-0.2,0.4-0.3c0.1-0.1,0.3-0.1,0.5-0.2
					c0.2,0,0.3-0.1,0.5-0.1c0.4,0,0.7,0.1,1,0.2c0.3,0.1,0.5,0.3,0.7,0.5c0.2,0.2,0.3,0.5,0.4,0.7c0.1,0.3,0.1,0.6,0.1,0.9v3.7h-1.8
					v-3.4c0-0.3-0.1-0.5-0.2-0.7c-0.2-0.2-0.4-0.3-0.7-0.3c-0.3,0-0.5,0.1-0.7,0.3c-0.2,0.2-0.3,0.4-0.3,0.7V49.8z"/>
				<path class="st0" d="M66.6,45.4c-0.2,0-0.4,0-0.5,0.1c-0.2,0.1-0.3,0.2-0.4,0.3c-0.1,0.1-0.2,0.3-0.3,0.5
					c-0.1,0.2-0.1,0.4-0.1,0.6c0,0.2,0,0.4,0.1,0.6c0.1,0.2,0.2,0.3,0.3,0.5c0.1,0.1,0.3,0.2,0.4,0.3c0.2,0.1,0.3,0.1,0.5,0.1
					c0.3,0,0.6-0.1,0.8-0.3c0.2-0.2,0.3-0.4,0.4-0.6l1.6,0.5c-0.1,0.3-0.2,0.5-0.3,0.8c-0.2,0.2-0.4,0.5-0.6,0.7
					c-0.2,0.2-0.5,0.3-0.8,0.5C67.4,49.9,67,50,66.6,50c-0.4,0-0.9-0.1-1.2-0.2c-0.4-0.2-0.7-0.4-1-0.6c-0.3-0.3-0.5-0.6-0.7-1
					c-0.2-0.4-0.2-0.8-0.2-1.3c0-0.5,0.1-0.9,0.2-1.3c0.2-0.4,0.4-0.7,0.7-1c0.3-0.3,0.6-0.5,1-0.6c0.4-0.2,0.8-0.2,1.2-0.2
					c0.4,0,0.8,0.1,1.1,0.2c0.3,0.1,0.6,0.3,0.8,0.5c0.2,0.2,0.4,0.4,0.6,0.7c0.2,0.2,0.3,0.5,0.3,0.8l-1.6,0.5
					c0-0.1-0.1-0.2-0.1-0.3c-0.1-0.1-0.1-0.2-0.2-0.3c-0.1-0.1-0.2-0.1-0.3-0.2C66.9,45.4,66.8,45.4,66.6,45.4z"/>
				<path class="st0" d="M74.1,49.8c0-0.1,0-0.1,0-0.3c0-0.1,0-0.2,0-0.3c-0.2,0.3-0.4,0.4-0.7,0.6c-0.3,0.1-0.6,0.2-0.9,0.2
					c-0.4,0-0.7-0.1-1-0.2c-0.3-0.1-0.5-0.3-0.7-0.5c-0.2-0.2-0.3-0.5-0.4-0.7c-0.1-0.3-0.1-0.6-0.1-0.9v-3.7h1.8v3.4
					c0,0.3,0.1,0.5,0.2,0.7c0.2,0.2,0.4,0.3,0.7,0.3c0.3,0,0.5-0.1,0.7-0.3c0.2-0.2,0.3-0.4,0.3-0.7v-3.4h1.8v4.9c0,0.3,0,0.5,0,0.7
					c0,0.2,0,0.3,0,0.4H74.1z"/>
				<path class="st0" d="M82.6,48.1c-0.1,0.3-0.2,0.5-0.3,0.7c-0.2,0.2-0.3,0.4-0.6,0.6c-0.2,0.2-0.5,0.3-0.8,0.4
					c-0.3,0.1-0.6,0.1-1,0.1c-0.4,0-0.8-0.1-1.2-0.2c-0.4-0.1-0.7-0.3-1-0.6c-0.3-0.3-0.5-0.6-0.7-1c-0.2-0.4-0.3-0.8-0.3-1.3
					c0-0.5,0.1-0.9,0.2-1.3c0.2-0.4,0.4-0.7,0.7-1c0.3-0.3,0.6-0.5,0.9-0.6c0.4-0.1,0.7-0.2,1.1-0.2c0.9,0,1.6,0.3,2.2,0.8
					c0.5,0.5,0.8,1.3,0.8,2.2c0,0.1,0,0.2,0,0.4c0,0.1,0,0.2,0,0.2h-4.1c0,0.2,0,0.3,0.1,0.5c0.1,0.1,0.2,0.3,0.3,0.4
					c0.1,0.1,0.3,0.2,0.4,0.2c0.2,0.1,0.3,0.1,0.5,0.1c0.3,0,0.6-0.1,0.8-0.2c0.2-0.1,0.3-0.3,0.4-0.6L82.6,48.1z M81,46.2
					c0-0.1,0-0.2-0.1-0.3c0-0.1-0.1-0.2-0.2-0.3c-0.1-0.1-0.2-0.2-0.4-0.2c-0.1-0.1-0.3-0.1-0.5-0.1c-0.2,0-0.4,0-0.5,0.1
					c-0.1,0.1-0.3,0.1-0.4,0.2c-0.1,0.1-0.2,0.2-0.2,0.3c-0.1,0.1-0.1,0.2-0.1,0.3H81z"/>
				<path class="st0" d="M85.5,49.8h-1.8v-5.9h1.7v0.7c0.1-0.1,0.2-0.3,0.3-0.4c0.1-0.1,0.3-0.2,0.4-0.3c0.1-0.1,0.3-0.1,0.5-0.2
					c0.2,0,0.3-0.1,0.5-0.1c0.4,0,0.7,0.1,1,0.2c0.3,0.1,0.5,0.3,0.7,0.5c0.2,0.2,0.3,0.5,0.4,0.7c0.1,0.3,0.1,0.6,0.1,0.9v3.7h-1.8
					v-3.4c0-0.3-0.1-0.5-0.2-0.7c-0.2-0.2-0.4-0.3-0.7-0.3c-0.3,0-0.5,0.1-0.7,0.3c-0.2,0.2-0.3,0.4-0.3,0.7V49.8z"/>
			</g>
		</g>
		<g>
			<g>
				<path class="st0" d="M92.8,43.9h1.2v1.6h-1.2v2.2c0,0.2,0.1,0.4,0.2,0.5c0.1,0.1,0.3,0.1,0.5,0.1c0.1,0,0.2,0,0.3,0
					c0.1,0,0.2,0,0.2,0v1.5c0,0-0.1,0-0.3,0.1c-0.2,0-0.4,0.1-0.7,0.1c-0.6,0-1.1-0.2-1.5-0.5C91.2,49.1,91,48.6,91,48v-2.5h-1v-1.6
					h0.3c0.3,0,0.5-0.1,0.7-0.3c0.2-0.2,0.2-0.4,0.2-0.7v-0.8h1.6V43.9z"/>
			</g>
		</g>
		<g>
			<g>
				<path class="st0" d="M98.7,45.7c-0.1,0-0.2,0-0.3,0c-0.1,0-0.2,0-0.3,0c-0.2,0-0.4,0-0.5,0.1c-0.2,0.1-0.3,0.1-0.4,0.3
					c-0.1,0.1-0.2,0.3-0.3,0.5c-0.1,0.2-0.1,0.5-0.1,0.7v2.6h-1.8v-5.9h1.7v0.8c0.1-0.2,0.2-0.3,0.3-0.4c0.1-0.1,0.3-0.2,0.4-0.3
					c0.1-0.1,0.3-0.1,0.4-0.1c0.1,0,0.3,0,0.4,0c0.2,0,0.3,0,0.5,0.1V45.7z"/>
			</g>
		</g>
		<g>
			<g>
				<path class="st0" d="M102.2,43.7c0.4,0,0.9,0.1,1.2,0.2c0.4,0.2,0.7,0.4,1,0.6c0.3,0.3,0.5,0.6,0.7,1c0.2,0.4,0.2,0.8,0.2,1.3
					c0,0.5-0.1,0.9-0.2,1.3c-0.2,0.4-0.4,0.7-0.7,1c-0.3,0.3-0.6,0.5-1,0.6c-0.4,0.2-0.8,0.2-1.2,0.2c-0.4,0-0.9-0.1-1.2-0.2
					c-0.4-0.2-0.7-0.4-1-0.6c-0.3-0.3-0.5-0.6-0.7-1c-0.2-0.4-0.2-0.8-0.2-1.3c0-0.5,0.1-0.9,0.2-1.3c0.2-0.4,0.4-0.7,0.7-1
					c0.3-0.3,0.6-0.5,1-0.6C101.3,43.8,101.7,43.7,102.2,43.7z M102.2,48.3c0.2,0,0.3,0,0.5-0.1c0.2-0.1,0.3-0.2,0.4-0.3
					c0.1-0.1,0.2-0.3,0.3-0.5c0.1-0.2,0.1-0.4,0.1-0.7c0-0.2,0-0.5-0.1-0.6c-0.1-0.2-0.2-0.3-0.3-0.5c-0.1-0.1-0.3-0.2-0.4-0.3
					c-0.2-0.1-0.3-0.1-0.5-0.1c-0.2,0-0.3,0-0.5,0.1c-0.2,0.1-0.3,0.1-0.4,0.3c-0.1,0.1-0.2,0.3-0.3,0.5c-0.1,0.2-0.1,0.4-0.1,0.6
					c0,0.2,0,0.5,0.1,0.6c0.1,0.2,0.2,0.3,0.3,0.5c0.1,0.1,0.3,0.2,0.4,0.3C101.9,48.3,102,48.3,102.2,48.3z"/>
			</g>
		</g>
	</g>
	<g>
		<g>
			<path class="st0" d="M140.3,30.4h2.4c1.4,0,2.3,0.8,2.3,2v0c0,1.4-1.1,2.1-2.4,2.1h-1.2v1.9h-1.1V30.4z M142.6,33.5
				c0.8,0,1.3-0.4,1.3-1.1v0c0-0.7-0.5-1.1-1.3-1.1h-1.2v2.2H142.6z"/>
			<path class="st0" d="M145.9,30.4h2.7c0.8,0,1.4,0.2,1.7,0.6c0.3,0.3,0.5,0.8,0.5,1.3v0c0,1-0.6,1.6-1.4,1.8l1.6,2.3h-1.2
				l-1.5-2.1h-1.3v2.1h-1.1V30.4z M148.5,33.4c0.8,0,1.2-0.4,1.2-1v0c0-0.6-0.5-1-1.2-1h-1.5v2H148.5z"/>
			<path class="st0" d="M151.9,30.4h4.5v0.9H153v1.6h3v0.9h-3v1.6h3.5v0.9h-4.5V30.4z"/>
			<path class="st0" d="M157.1,35.5l0.6-0.8c0.6,0.5,1.2,0.8,1.9,0.8c0.7,0,1.1-0.3,1.1-0.8v0c0-0.4-0.2-0.7-1.4-0.9
				c-1.3-0.3-2-0.7-2-1.8v0c0-1,0.9-1.7,2.1-1.7c0.9,0,1.6,0.3,2.2,0.8l-0.6,0.8c-0.5-0.4-1.1-0.6-1.6-0.6c-0.6,0-1,0.3-1,0.7v0
				c0,0.5,0.3,0.7,1.4,0.9c1.3,0.3,1.9,0.8,1.9,1.8v0c0,1.1-0.9,1.8-2.2,1.8C158.7,36.5,157.8,36.2,157.1,35.5z"/>
			<path class="st0" d="M162.9,30.4h1.1v6h-1.1V30.4z"/>
			<path class="st0" d="M165.4,30.4h2.2c1.9,0,3.2,1.3,3.2,3v0c0,1.7-1.3,3-3.2,3h-2.2V30.4z M167.7,35.5c1.3,0,2.1-0.9,2.1-2v0
				c0-1.2-0.8-2.1-2.1-2.1h-1.2v4.1H167.7z"/>
			<path class="st0" d="M172,30.4h4.5v0.9H173v1.6h3v0.9h-3v1.6h3.5v0.9H172V30.4z"/>
			<path class="st0" d="M177.6,30.4h1l3.2,4.2v-4.2h1v6h-0.9l-3.3-4.3v4.3h-1V30.4z"/>
			<path class="st0" d="M185.7,31.4h-1.9v-1h4.9v1h-1.9v5h-1.1V31.4z"/>
			<path class="st0" d="M189.6,30.4h4.5v0.9h-3.4v1.6h3v0.9h-3v1.6h3.5v0.9h-4.5V30.4z"/>
		</g>
	</g>
	<g>
		<path class="st0" d="M125.8,25.8L125.8,25.8c0-1.8,1.4-3.2,3.2-3.2c1.1,0,1.8,0.3,2.4,0.9l-1,1.2c-0.4-0.4-0.9-0.6-1.5-0.6
			c-0.9,0-1.5,0.7-1.5,1.7v0c0,1,0.7,1.7,1.6,1.7c0.4,0,0.7-0.1,1-0.3v-0.7h-1.2v-1.2h2.8V28c-0.6,0.5-1.5,0.9-2.6,0.9
			C127.2,28.9,125.8,27.6,125.8,25.8z"/>
		<path class="st0" d="M132.4,26.2v-3.4h1.7v3.4c0,0.9,0.4,1.3,1.1,1.3c0.7,0,1.1-0.4,1.1-1.2v-3.4h1.7v3.3c0,1.9-1.1,2.8-2.8,2.8
			C133.5,28.9,132.4,28.1,132.4,26.2z"/>
		<path class="st0" d="M138.8,22.8h1.7v6h-1.7V22.8z"/>
		<path class="st0" d="M141.5,22.8h1.7v4.6h2.9v1.5h-4.6V22.8z"/>
		<path class="st0" d="M146.6,22.8h1.7v4.6h2.9v1.5h-4.6V22.8z"/>
		<path class="st0" d="M151.7,22.8h4.8v1.4h-3.2v0.9h2.9v1.3h-2.9v1h3.2v1.4h-4.9V22.8z"/>
		<path class="st0" d="M157.3,22.8h2.9c0.9,0,1.6,0.2,2,0.7c0.4,0.3,0.5,0.8,0.5,1.4v0c0,0.9-0.5,1.5-1.2,1.9l1.4,2.1h-1.9l-1.2-1.8
			H159v1.8h-1.7V22.8z M160.1,25.7c0.6,0,0.9-0.3,0.9-0.7v0c0-0.5-0.3-0.7-0.9-0.7H159v1.4H160.1z"/>
		<path class="st0" d="M163.3,22.8h1.8l1.4,2.3l1.4-2.3h1.8v6H168v-3.5l-1.5,2.4h0l-1.5-2.3v3.4h-1.6V22.8z"/>
		<path class="st0" d="M170.4,25.8L170.4,25.8c0-1.7,1.4-3.2,3.3-3.2c1.9,0,3.2,1.4,3.2,3.1v0c0,1.7-1.4,3.1-3.3,3.1
			C171.8,28.9,170.4,27.6,170.4,25.8z M175.2,25.8L175.2,25.8c0-0.9-0.6-1.6-1.6-1.6c-0.9,0-1.5,0.7-1.5,1.6v0
			c0,0.9,0.6,1.6,1.5,1.6C174.6,27.4,175.2,26.7,175.2,25.8z"/>
		<path class="st0" d="M179.8,22.8h1.7v4.6h2.9v1.5h-4.6V22.8z"/>
		<path class="st0" d="M187,22.7h1.6l2.6,6.1h-1.8l-0.4-1.1h-2.3l-0.4,1.1h-1.8L187,22.7z M188.5,26.4l-0.7-1.7l-0.7,1.7H188.5z"/>
		<path class="st0" d="M191,27.9l0.9-1.1c0.6,0.5,1.3,0.7,2,0.7c0.4,0,0.7-0.2,0.7-0.4v0c0-0.3-0.2-0.4-1-0.6
			c-1.3-0.3-2.3-0.7-2.3-1.9v0c0-1.1,0.9-1.9,2.3-1.9c1,0,1.8,0.3,2.5,0.8l-0.8,1.2c-0.6-0.4-1.2-0.6-1.7-0.6
			c-0.4,0-0.6,0.2-0.6,0.4v0c0,0.3,0.2,0.4,1,0.6c1.4,0.3,2.2,0.7,2.2,1.9v0c0,1.2-1,2-2.4,2C192.8,28.9,191.8,28.6,191,27.9z"/>
		<path class="st0" d="M196.4,27.9l0.9-1.1c0.6,0.5,1.3,0.7,2,0.7c0.4,0,0.7-0.2,0.7-0.4v0c0-0.3-0.2-0.4-1-0.6
			c-1.3-0.3-2.3-0.7-2.3-1.9v0c0-1.1,0.9-1.9,2.3-1.9c1,0,1.8,0.3,2.5,0.8l-0.8,1.2c-0.6-0.4-1.2-0.6-1.7-0.6
			c-0.4,0-0.6,0.2-0.6,0.4v0c0,0.3,0.2,0.4,1,0.6c1.4,0.3,2.2,0.7,2.2,1.9v0c0,1.2-1,2-2.4,2C198.2,28.9,197.1,28.6,196.4,27.9z"/>
		<path class="st0" d="M202.1,25.8L202.1,25.8c0-1.7,1.4-3.2,3.3-3.2c1.9,0,3.2,1.4,3.2,3.1v0c0,1.7-1.4,3.1-3.3,3.1
			C203.5,28.9,202.1,27.6,202.1,25.8z M206.9,25.8L206.9,25.8c0-0.9-0.6-1.6-1.6-1.6c-0.9,0-1.5,0.7-1.5,1.6v0
			c0,0.9,0.6,1.6,1.5,1.6C206.3,27.4,206.9,26.7,206.9,25.8z"/>
	</g>
	<g>
		<g>
			
				<rect x="91.5" y="28.8" transform="matrix(-1.836970e-16 1 -1 -1.836970e-16 144.7249 -86.4366)" class="st7" width="48.2" height="0.6"/>
		</g>
		
			<rect x="103.4" y="40.7" transform="matrix(-1.836970e-16 1 -1 -1.836970e-16 156.6007 -74.5609)" class="st0" width="24.4" height="0.6"/>
		
			<rect x="109.3" y="46.6" transform="matrix(-1.836970e-16 1 -1 -1.836970e-16 162.5232 -68.6384)" class="st8" width="12.6" height="0.6"/>
	</g>
</g>
</svg>
